<?xml version="1.0" standalone="no"?>
<!DOCTYPE svg PUBLIC "-//W3C//DTD SVG 20010904//EN"
 "http://www.w3.org/TR/2001/REC-SVG-20010904/DTD/svg10.dtd">
<svg version="1.0" xmlns="http://www.w3.org/2000/svg"
 width="2140.000000pt" height="2140.000000pt" viewBox="0 0 2140.000000 2140.000000"
 preserveAspectRatio="xMidYMid meet">
<metadata>
Created by potrace 1.14, written by Peter Selinger 2001-2017
</metadata>
<g transform="translate(0.000000,2140.000000) scale(0.100000,-0.100000)"
fill="#000000" stroke="none">
<path d="M14460 15689 c-19 -5 -49 -10 -66 -13 -77 -13 -124 -52 -208 -175
-107 -154 -125 -228 -135 -548 -1 -22 -7 -34 -20 -38 -39 -12 -50 -87 -22
-157 6 -16 9 -28 6 -28 -10 0 28 -87 51 -118 21 -26 31 -32 50 -28 20 5 24 2
30 -31 4 -21 17 -61 30 -90 21 -46 24 -72 29 -240 l5 -189 -42 -37 c-41 -36
-71 -58 -258 -187 -48 -33 -133 -107 -190 -165 -66 -67 -131 -121 -175 -147
-168 -100 -198 -135 -233 -269 -16 -60 -19 -97 -15 -196 3 -103 1 -133 -16
-189 -20 -64 -35 -139 -46 -239 -3 -27 -7 -68 -10 -90 -2 -22 -7 -67 -10 -100
-8 -78 -11 -92 -29 -142 -28 -77 -36 -237 -22 -458 8 -114 9 -126 20 -235 4
-36 32 -164 61 -285 30 -121 57 -244 60 -273 3 -29 10 -74 15 -101 5 -27 7
-62 4 -77 -10 -66 -28 -130 -56 -201 -39 -102 -40 -127 -12 -188 33 -67 43
-79 89 -105 156 -88 184 -87 258 11 31 41 37 90 18 137 -11 26 -10 36 8 75 31
69 28 150 -8 227 -29 60 -29 63 -25 208 5 191 10 258 29 393 3 20 8 56 10 80
2 24 8 67 11 94 4 28 8 174 9 325 2 151 5 284 8 295 3 11 13 45 21 75 8 30 19
67 25 83 6 15 8 27 6 27 -3 0 6 25 20 55 31 72 106 178 117 167 5 -5 17 -38
27 -75 19 -64 38 -109 86 -207 31 -61 36 -93 40 -218 1 -59 5 -118 9 -132 42
-174 41 -326 -3 -408 -18 -34 -23 -74 -26 -232 -2 -85 -4 -158 -5 -162 0 -4
-28 -28 -62 -54 -90 -68 -176 -153 -199 -197 -27 -52 -42 -136 -41 -233 0 -91
16 -138 61 -186 36 -39 36 -39 13 -64 -10 -10 -29 -35 -42 -54 -24 -34 -25
-39 -25 -215 0 -213 10 -256 84 -367 40 -58 50 -83 52 -121 3 -43 0 -52 -27
-75 -39 -34 -53 -61 -60 -114 -3 -24 -12 -70 -21 -103 -14 -58 -14 -61 10
-115 33 -73 40 -92 40 -112 -2 -86 1 -81 -73 -131 -39 -26 -85 -50 -103 -53
-81 -14 -102 -35 -141 -138 -11 -28 -36 -68 -56 -90 -21 -23 -49 -60 -63 -83
l-26 -41 26 -17 c22 -15 24 -22 19 -53 -11 -71 -24 -123 -42 -179 -31 -97 -25
-150 19 -170 12 -6 64 -9 115 -9 80 2 92 0 86 -14 -40 -94 -59 -188 -56 -280
2 -53 13 -177 17 -187 2 -7 0 -15 -6 -18 -5 -4 -7 -10 -4 -15 3 -5 8 -57 10
-116 5 -138 41 -315 65 -321 10 -3 25 -29 38 -66 18 -54 27 -91 47 -197 3 -14
7 -36 10 -50 18 -91 17 -119 -7 -150 -20 -28 -23 -40 -19 -108 8 -163 3 -256
-20 -369 -13 -67 -5 -192 15 -231 20 -38 76 -82 104 -82 36 0 70 22 86 54 20
43 21 52 11 126 -4 36 -9 128 -10 205 0 78 -5 146 -9 153 -4 7 17 48 53 103
34 50 61 98 62 107 0 9 2 26 5 37 2 11 6 45 8 75 7 104 6 98 16 74 25 -63 31
-154 14 -245 -12 -71 -12 -254 1 -324 3 -16 7 -76 9 -133 3 -86 0 -115 -20
-180 -23 -74 -43 -205 -40 -268 3 -57 117 -84 205 -48 44 17 52 30 45 71 -3
15 -6 37 -8 48 -2 11 -11 37 -19 58 -9 20 -14 37 -12 37 3 0 0 12 -6 28 -26
64 -22 94 41 307 48 164 59 236 55 350 -3 61 -8 129 -13 152 -17 78 1 272 38
408 10 39 21 88 23 110 2 22 11 56 20 75 8 20 18 55 22 80 4 25 8 47 10 50 4
7 17 96 20 135 1 16 -2 50 -7 75 -16 86 -21 115 -19 130 1 8 1 23 2 33 1 28 8
19 19 -25 6 -24 34 -113 62 -198 27 -85 51 -159 53 -165 1 -5 5 -17 8 -25 7
-17 107 -300 111 -315 2 -5 7 -21 13 -35 84 -208 114 -304 118 -388 6 -118 20
-178 69 -297 22 -55 23 -62 9 -88 -33 -65 -54 -151 -48 -198 5 -37 1 -59 -20
-110 -20 -45 -26 -74 -22 -101 7 -51 52 -125 89 -148 35 -21 128 -32 275 -33
279 0 298 28 296 440 -1 88 -2 94 -44 175 -24 45 -62 121 -86 168 l-43 86 26
88 c22 76 25 107 24 205 -3 193 -2 220 24 346 32 154 45 229 50 275 5 44 13
61 36 83 17 15 31 38 31 50 6 99 -9 411 -20 447 -6 19 -11 52 -11 73 l0 39 36
-21 c50 -30 147 -61 187 -61 20 0 41 -7 50 -17 13 -16 14 -24 2 -68 -27 -104
-31 -203 -20 -455 4 -96 3 -90 16 -88 6 2 13 -18 15 -47 3 -27 7 -63 10 -80 3
-16 7 -135 10 -264 2 -154 7 -237 15 -241 6 -4 31 -3 55 1 25 5 65 11 89 15
l45 6 2 -39 c0 -21 2 -114 3 -208 1 -171 10 -220 62 -355 4 -8 7 -17 7 -20 1
-3 7 -20 15 -37 12 -30 11 -36 -13 -77 -30 -51 -63 -80 -110 -96 -38 -12 -67
-56 -64 -96 4 -42 64 -97 139 -126 64 -24 66 -28 56 -74 -6 -26 6 -46 30 -51
49 -10 171 -5 198 8 29 14 30 17 27 74 -4 86 3 105 36 105 15 0 38 7 51 16 31
22 59 88 56 127 -5 42 -34 175 -46 207 -5 14 -11 57 -13 96 -3 61 0 76 21 110
79 128 95 184 97 347 1 60 6 91 14 96 38 23 46 63 48 246 1 99 4 198 7 220 3
22 9 65 13 95 8 65 28 110 50 110 14 0 15 -10 10 -62 -4 -35 -9 -85 -11 -111
-3 -26 -6 -51 -6 -55 -4 -22 4 -28 31 -26 16 1 48 -8 72 -21 24 -12 69 -28
101 -35 31 -6 57 -13 57 -15 0 -2 7 -30 16 -62 8 -32 17 -65 19 -73 1 -8 8
-35 15 -60 7 -25 11 -97 10 -170 -3 -167 -2 -234 5 -267 3 -15 8 -44 11 -63 3
-19 21 -96 40 -170 47 -177 48 -181 47 -210 0 -14 -21 -69 -47 -122 -25 -54
-46 -111 -46 -127 0 -28 4 -32 48 -44 26 -8 77 -15 115 -16 64 -2 68 -1 77 24
10 27 14 155 6 194 -3 13 -13 47 -22 74 -14 43 -16 74 -10 201 11 235 8 300
-19 376 -8 24 -12 59 -8 92 10 96 9 152 -2 193 -9 33 -12 111 -6 163 0 6 7 12
14 12 21 0 47 -108 44 -181 -2 -37 3 -93 9 -125 7 -33 13 -88 13 -124 1 -76
19 -147 51 -210 23 -45 25 -59 20 -195 -3 -66 4 -98 34 -155 20 -39 25 -63 27
-146 4 -113 17 -137 83 -149 52 -10 92 10 121 60 33 56 31 89 -9 171 -19 38
-42 95 -51 126 -9 31 -29 71 -44 88 -24 27 -27 39 -24 79 4 48 14 125 20 151
2 8 6 58 9 110 6 86 5 100 -16 140 -25 51 -36 175 -19 232 5 18 12 56 15 83 8
62 18 75 58 75 17 0 45 7 61 16 17 9 50 16 77 15 51 -1 79 9 171 64 47 28 59
32 64 19 3 -8 3 -17 0 -20 -3 -3 -1 -20 5 -37 5 -18 12 -48 14 -67 3 -19 10
-52 15 -72 5 -20 10 -64 10 -97 1 -50 4 -60 21 -64 20 -6 20 -5 3 -107 -2 -14
-7 -61 -10 -105 -5 -75 -8 -104 -21 -215 -14 -126 -32 -174 -97 -258 -36 -48
-41 -60 -47 -130 -5 -60 -15 -93 -44 -150 -54 -108 -51 -154 16 -188 37 -19
164 -26 208 -11 35 12 35 12 52 -25 20 -44 67 -72 108 -63 16 4 43 22 60 41
29 34 30 37 31 142 1 124 2 131 30 215 12 34 24 89 26 122 6 90 7 93 38 192
45 143 51 125 30 -97 -3 -36 -7 -126 -9 -200 -2 -74 -6 -146 -10 -160 -11 -47
-18 -106 -20 -182 -3 -72 -1 -77 21 -87 13 -6 66 -14 117 -17 87 -6 95 -5 115
15 29 29 26 54 -9 95 -38 42 -44 64 -44 141 0 62 22 135 74 250 53 115 63 161
66 304 4 144 5 155 22 241 25 119 39 224 41 299 1 21 5 23 41 19 22 -2 41 -1
41 2 1 3 3 41 4 85 1 54 9 99 23 137 20 52 21 72 17 205 -3 82 -8 171 -12 198
-3 28 -7 77 -7 110 l-1 59 33 3 c18 2 46 10 63 18 30 16 119 103 119 118 0 4
13 7 28 7 16 0 37 9 46 19 16 18 16 23 -12 102 -33 92 -53 141 -63 149 -3 3
-21 31 -40 63 -18 31 -37 57 -41 57 -5 0 -8 5 -8 11 0 23 -124 196 -161 223
l-39 30 -1 80 c-1 45 -3 101 -4 126 -1 25 -5 110 -9 190 -5 112 -3 160 8 210
26 114 42 165 69 212 14 25 29 68 33 94 4 27 14 59 22 72 l15 23 21 -35 c71
-121 152 -246 158 -246 5 0 8 -4 8 -9 0 -14 104 -128 149 -165 55 -43 153 -11
240 77 90 92 126 151 190 315 23 56 38 82 50 82 91 0 198 96 184 165 -2 11 -6
35 -8 53 -4 35 -66 118 -95 127 -10 3 -29 0 -44 -6 -29 -13 -42 -7 -30 13 9
14 10 17 20 70 5 32 3 38 -20 53 -24 16 -28 16 -44 2 -10 -9 -19 -26 -20 -39
-6 -44 -9 -73 -10 -89 -1 -8 -17 -30 -34 -48 -31 -32 -33 -38 -35 -117 -2 -57
-8 -95 -20 -118 -36 -70 -173 -206 -206 -206 -8 0 -133 172 -160 220 -14 25
-32 77 -41 117 -15 69 -43 133 -58 133 -5 0 -8 6 -8 13 0 22 -94 115 -140 138
-25 12 -80 44 -123 70 -43 27 -95 54 -117 60 -42 13 -44 17 -41 83 2 31 12 50
51 94 53 60 58 75 59 207 2 124 -21 204 -77 267 -37 42 -72 57 -141 65 -58 6
-63 4 -123 -35 -80 -52 -98 -77 -124 -167 -24 -84 -25 -219 -2 -325 11 -51 12
-74 4 -105 -12 -41 -10 -40 -107 -59 -43 -8 -107 -34 -185 -75 -43 -23 -86
-41 -98 -41 -93 0 -204 -154 -231 -320 -12 -76 -18 -92 -60 -154 -24 -36 -53
-91 -64 -123 -12 -32 -28 -69 -37 -83 -88 -141 -90 -280 -7 -338 41 -28 60
-33 138 -40 117 -10 200 -8 198 5 -3 14 24 25 32 13 3 -6 6 -36 6 -68 1 -52
-40 -184 -91 -297 -12 -27 -30 -87 -36 -121 -3 -15 -9 -35 -14 -45 -6 -10 -10
-44 -11 -76 0 -32 -4 -67 -8 -78 -7 -17 -9 -16 -16 10 -4 17 -9 46 -11 65 -2
19 -5 46 -9 60 -10 46 -22 113 -29 160 -7 49 -35 131 -63 182 -26 49 -34 54
-131 100 -56 26 -116 50 -132 53 -73 13 -105 40 -81 69 7 8 13 22 15 32 8 40
12 47 31 69 24 27 32 83 13 90 -8 3 -14 25 -14 55 -2 57 -39 130 -80 157 -31
20 -135 26 -172 11 -15 -7 -37 -21 -49 -32 -22 -19 -23 -19 -43 -1 -13 12 -20
31 -20 54 -1 62 -25 158 -51 195 -27 39 -39 46 -124 71 -63 18 -73 22 -199 80
l-78 36 6 52 c13 100 18 116 52 154 45 50 68 121 47 145 -15 16 -14 40 2 115
19 84 -80 223 -180 252 -56 16 -127 7 -189 -24 l-47 -24 -8 22 c-5 12 -12 38
-16 57 -4 19 -16 51 -25 70 -30 57 -54 87 -187 231 -38 41 -52 73 -58 134 -1
11 -7 36 -13 55 -6 19 -13 69 -17 110 -8 111 -15 156 -35 249 -23 104 -21 209
5 227 23 17 33 10 55 -40 51 -114 134 -146 275 -104 28 9 91 18 140 21 50 3
103 11 119 17 81 30 244 178 281 253 31 64 34 122 10 237 -17 85 -21 97 -70
224 -15 38 -28 77 -30 87 -6 32 -56 212 -71 255 -8 23 -54 125 -103 225 -87
182 -141 307 -141 329 0 40 -135 259 -212 344 -10 11 -18 23 -18 27 0 16 -94
70 -138 80 -26 5 -81 9 -123 8 l-75 -3 -115 68 c-126 75 -130 77 -205 124 -29
17 -55 32 -58 32 -4 0 -160 103 -199 131 -15 11 -26 380 -13 434 2 11 5 26 5
33 1 8 9 10 24 7 38 -10 74 28 96 100 26 82 38 185 22 186 -6 1 -16 2 -23 3
-14 1 -15 10 -22 139 -10 193 -47 307 -134 422 -43 58 -186 175 -248 206 -47
22 -162 31 -224 18z m1347 -3119 c21 -37 76 -132 96 -165 24 -40 82 -121 108
-152 l27 -32 -35 -65 c-36 -69 -53 -82 -53 -42 0 39 -38 114 -70 136 -17 12
-30 26 -30 32 0 30 -42 67 -90 78 -76 18 -77 40 -5 193 15 32 29 56 30 55 2
-2 12 -19 22 -38z m1937 -2995 c-1 -60 -2 -120 -3 -131 -1 -20 -7 -22 -81 -23
-63 -1 -82 2 -86 13 -4 9 18 47 53 93 32 43 70 103 83 135 32 71 37 57 34 -87z
m-1109 -209 c13 -23 32 -71 41 -106 9 -36 26 -86 39 -112 l23 -46 -21 -20
c-28 -26 -89 -62 -103 -62 -8 0 -10 20 -7 63 7 94 6 100 -26 161 -32 59 -34
99 -11 157 15 35 28 28 65 -35z m-2492 -41 c13 -14 31 -40 38 -58 7 -17 19
-40 28 -51 9 -10 15 -20 13 -22 -1 -2 4 -17 12 -32 27 -52 71 -202 60 -202 -3
0 -33 11 -67 24 -34 14 -81 27 -104 29 -56 5 -93 30 -94 65 0 15 -2 36 -4 46
-2 11 9 44 25 75 15 31 31 78 35 104 8 54 21 58 58 22z m3275 -811 c7 -20 10
-51 6 -69 -8 -44 -55 -100 -77 -92 -13 5 -15 21 -12 109 1 57 3 109 4 116 2
27 65 -25 79 -64z m-3154 -48 c17 -35 31 -125 29 -186 0 -19 -3 -89 -5 -155
-3 -76 -1 -138 7 -172 7 -29 9 -50 5 -48 -4 3 -11 22 -15 42 -4 21 -17 71 -30
113 -19 60 -24 95 -23 175 1 112 -8 173 -33 216 -5 8 31 49 41 49 4 0 15 -15
24 -34z m3212 -228 c-35 -127 -74 -249 -79 -242 -10 18 -27 91 -32 144 l-5 55
52 33 c63 38 72 39 64 10z m-905 -380 c-15 -58 -19 -85 -20 -137 -2 -85 -21
-19 -24 81 -2 47 2 60 22 82 31 33 37 27 22 -26z m1344 -1621 c-2 -63 -14
-125 -26 -133 -18 -11 -11 102 10 158 4 13 6 30 4 38 -4 12 -2 12 5 2 5 -7 8
-36 7 -65z"/>
<path d="M10956 15422 c-27 -2 -61 -11 -75 -21 -33 -23 -93 -46 -108 -43 -6 1
-25 -17 -42 -42 -17 -24 -37 -50 -43 -58 -7 -7 -24 -30 -38 -50 -14 -21 -28
-38 -32 -38 -15 0 -40 -51 -45 -87 -2 -21 -9 -51 -15 -67 -13 -32 -15 -117 -4
-156 4 -14 6 -52 6 -85 0 -33 -1 -96 -1 -140 -2 -149 15 -229 57 -275 31 -34
54 -136 54 -244 0 -134 -29 -169 -175 -216 -38 -12 -128 -51 -198 -86 -112
-56 -141 -66 -227 -79 -159 -23 -172 -33 -267 -212 -59 -112 -85 -188 -117
-343 -15 -69 -29 -134 -31 -145 -3 -11 -17 -34 -32 -52 -102 -118 -149 -209
-188 -358 -15 -55 -54 -181 -88 -280 -57 -168 -61 -186 -61 -270 l0 -90 81
-160 c44 -88 88 -185 98 -215 10 -30 28 -75 41 -100 17 -31 24 -61 24 -98 0
-114 69 -176 221 -197 40 -6 52 -3 89 21 26 18 47 42 57 66 8 21 28 47 43 58
26 19 47 68 41 98 -1 6 5 12 13 12 24 0 56 41 52 65 -2 12 -14 41 -25 63 -23
45 -22 53 21 125 37 64 36 98 -3 131 -17 14 -36 26 -42 26 -11 -1 -54 -21
-140 -68 -60 -32 -80 -17 -106 77 -12 42 -24 85 -26 96 -2 11 -12 47 -21 80
-27 101 -17 139 68 252 41 54 92 127 114 163 38 61 124 249 124 270 0 6 5 10
10 10 6 0 10 -15 11 -32 1 -44 6 -80 25 -163 9 -38 17 -77 19 -86 2 -9 15 -65
30 -125 15 -60 29 -120 31 -134 3 -14 7 -32 9 -40 23 -85 23 -452 -1 -574 -2
-12 -6 -45 -9 -74 -2 -29 -7 -62 -9 -75 -3 -12 -8 -42 -11 -67 -3 -25 -7 -54
-9 -65 -15 -78 -20 -118 -22 -175 -6 -186 -18 -306 -41 -405 -14 -60 -26 -132
-27 -160 -5 -98 33 -228 82 -281 41 -44 50 -65 42 -97 -10 -44 -3 -84 25 -142
22 -47 45 -169 60 -318 3 -32 14 -93 24 -137 10 -44 18 -81 17 -81 0 -1 -15
-2 -31 -4 -56 -4 -108 -16 -130 -31 -37 -24 -64 -85 -70 -160 -3 -38 -5 -73
-6 -79 -3 -27 9 -79 19 -83 6 -2 23 -28 37 -57 26 -53 30 -85 10 -87 -5 0 -21
-8 -35 -18 -26 -18 -100 -46 -144 -54 -41 -7 -79 -35 -104 -74 -50 -80 -39
-78 -140 -27 -49 25 -95 45 -101 45 -17 0 -13 37 13 109 30 86 27 177 -10 258
-41 90 -181 128 -268 71 -46 -30 -56 -50 -64 -134 -8 -78 4 -152 39 -231 13
-29 21 -54 18 -56 -2 -2 -70 -47 -151 -101 -80 -53 -152 -107 -160 -119 -18
-28 -30 -60 -63 -172 -15 -49 -31 -95 -36 -100 -4 -6 -16 -42 -27 -80 -22 -82
-20 -165 6 -210 24 -40 81 -78 107 -70 47 15 50 12 50 -39 1 -26 -7 -78 -16
-115 -13 -52 -17 -113 -17 -286 0 -121 3 -229 8 -240 14 -35 36 -184 39 -267
1 -10 7 -18 15 -18 27 0 44 -29 56 -97 26 -141 30 -198 19 -237 -10 -32 -21
-90 -22 -116 -3 -35 15 -125 30 -153 21 -42 34 -201 18 -226 -3 -5 -17 -49
-31 -97 -28 -99 -32 -218 -7 -267 40 -79 152 -77 186 2 5 14 11 78 13 141 1
93 7 129 27 190 15 41 29 109 32 150 6 87 8 96 23 130 6 14 16 43 21 65 6 22
17 49 25 60 13 18 13 16 10 -15 -12 -125 -16 -182 -19 -320 -2 -85 -8 -180
-15 -210 -6 -30 -14 -101 -17 -157 l-5 -102 40 -10 c22 -6 75 -13 117 -16 70
-4 78 -3 100 19 29 29 24 57 -16 103 -25 29 -31 45 -44 112 -5 25 18 121 35
153 6 10 10 23 10 28 0 6 12 37 27 68 56 118 71 177 73 290 2 121 6 181 16
232 3 19 8 46 10 60 3 14 9 48 14 75 5 28 12 73 15 100 10 87 15 119 21 124 2
3 20 4 39 3 28 -2 34 1 38 20 2 13 3 -49 2 -137 -1 -88 2 -168 7 -177 8 -16
30 -17 78 -3 44 13 109 15 116 3 4 -6 8 -102 9 -212 l2 -201 35 -105 c20 -58
51 -143 68 -190 70 -186 70 -189 52 -256 -10 -32 -29 -76 -43 -97 -22 -32 -27
-57 -20 -98 2 -12 172 -16 216 -5 32 8 46 42 36 87 -4 19 -4 49 1 67 8 31 23
38 65 33 15 -2 57 55 70 94 12 39 9 70 -22 185 -14 52 -27 127 -29 166 -4 64
-1 76 25 120 l30 49 -8 -60 c-5 -33 -8 -105 -8 -161 0 -95 2 -103 28 -138 16
-20 44 -45 63 -53 31 -15 37 -15 67 -1 45 22 76 82 65 128 -5 19 -11 111 -13
205 -2 93 -7 180 -10 192 -4 17 11 46 55 111 l60 89 6 94 c7 103 19 133 29 73
4 -22 11 -54 15 -72 5 -18 7 -41 6 -50 -2 -9 -7 -39 -11 -67 -4 -27 -9 -61
-12 -75 -5 -36 -5 -188 0 -197 5 -9 19 -159 22 -238 1 -27 -5 -75 -12 -105 -8
-30 -16 -62 -18 -70 -2 -8 -8 -28 -15 -44 -6 -17 -13 -74 -15 -128 -3 -92 -2
-100 18 -113 60 -38 170 -30 217 16 25 25 33 28 50 19 11 -6 20 -14 20 -18 0
-4 13 -16 30 -25 99 -59 303 -56 463 5 95 36 147 81 147 128 0 27 3 31 18 25
54 -23 116 -16 153 16 13 12 33 29 45 38 53 42 54 51 53 297 -2 152 2 236 9
250 11 22 18 51 28 119 3 22 9 44 13 48 12 13 5 -113 -9 -166 -16 -61 -8 -150
18 -208 36 -79 35 -175 -3 -304 -39 -131 -43 -249 -10 -298 41 -64 109 -70
161 -16 27 28 29 37 31 112 3 133 12 203 33 258 12 28 23 77 25 108 6 94 15
142 30 172 9 15 14 32 13 36 -3 12 25 83 33 83 4 0 6 -15 4 -32 -14 -158 -18
-231 -20 -348 -2 -74 -5 -145 -8 -156 -18 -73 -31 -253 -19 -272 11 -16 99
-30 180 -29 50 2 67 6 78 21 19 27 18 38 -11 77 -42 58 -58 102 -56 156 2 43
35 148 70 226 16 34 32 73 36 87 4 14 11 30 15 35 13 17 21 84 25 225 3 74 9
158 15 185 5 28 12 66 16 85 3 19 7 42 9 50 2 8 7 44 11 80 4 36 9 68 10 73 1
4 2 21 3 38 1 30 2 31 41 27 23 -2 41 1 41 7 1 5 2 46 3 90 1 57 8 93 21 120
17 36 19 59 17 219 -2 98 -5 183 -8 187 -2 4 -7 42 -11 84 -6 84 -1 95 47 95
36 0 98 43 140 96 26 33 42 44 62 44 16 0 33 8 41 20 15 21 12 70 -4 70 -5 0
-9 8 -9 18 0 42 -46 135 -142 285 -56 89 -120 181 -143 204 -28 30 -81 63
-182 113 -79 38 -147 70 -153 70 -15 0 -12 21 11 86 28 75 30 200 5 259 -23
54 -43 74 -98 100 -53 25 -124 24 -168 -2 -24 -14 -30 -12 -103 27 -51 26 -96
43 -129 46 -28 3 -66 11 -85 19 -37 16 -38 23 -3 115 9 25 15 61 13 80 -4 41
-39 134 -65 172 -16 23 -17 34 -8 71 17 76 24 176 24 317 -1 117 -4 209 -19
485 -2 36 5 88 16 132 11 40 20 83 20 95 2 37 -10 120 -26 179 -9 29 -17 63
-20 75 -26 112 -151 382 -241 519 -23 34 -35 66 -38 100 -2 28 -9 70 -15 95
-33 152 -34 590 0 677 5 14 12 49 15 77 4 28 8 60 9 71 1 11 3 27 4 35 1 15
90 115 95 109 2 -2 11 -35 20 -73 24 -97 52 -152 155 -301 220 -319 219 -317
235 -396 37 -177 96 -361 168 -527 48 -111 49 -114 45 -200 -2 -48 0 -94 4
-103 4 -8 10 -44 13 -80 11 -122 12 -123 107 -212 58 -54 80 -69 110 -72 96
-9 282 99 253 147 -4 6 -6 53 -6 104 l1 93 -34 21 c-18 11 -45 40 -58 63 -14
23 -39 54 -56 70 -34 30 -33 20 -37 232 -3 201 -10 267 -35 355 -7 25 -13 50
-14 55 -12 54 -99 243 -144 313 -32 49 -73 126 -91 173 -53 137 -119 287 -170
389 -33 66 -53 122 -65 185 -45 231 -73 315 -136 410 -47 70 -96 108 -159 125
-47 12 -91 36 -125 67 -59 54 -124 98 -254 173 -185 107 -199 120 -208 190 -9
69 -9 171 1 230 20 124 33 174 46 180 63 29 77 40 97 78 12 23 20 52 17 64
-10 51 -13 208 -3 240 5 18 12 53 14 78 3 25 7 64 10 87 4 31 0 53 -14 78 -14
26 -17 44 -11 74 5 30 3 44 -11 62 -10 13 -19 34 -19 45 0 46 -30 93 -70 114
-23 11 -51 38 -65 61 -14 22 -38 45 -53 50 -15 6 -52 22 -82 35 -55 25 -59 25
-204 16z m-544 -6337 l16 -40 -28 0 c-39 0 -43 7 -25 50 9 20 17 36 19 34 1
-2 10 -22 18 -44z m1902 -274 c3 -5 -5 -16 -19 -25 -19 -12 -25 -13 -27 -4 -4
37 -4 44 -1 51 5 8 39 -8 47 -22z m-993 -1632 c15 -28 12 -169 -5 -239 l-13
-55 -1 60 c0 34 -5 72 -10 85 -7 20 -10 155 -3 168 5 9 22 -1 32 -19z m361
-123 c-10 -16 -12 -43 -16 -166 -5 -136 8 -209 60 -337 61 -148 67 -186 50
-318 -6 -43 -10 -55 -17 -43 -11 20 -28 105 -34 169 -2 25 -15 81 -29 125 -56
180 -81 351 -63 424 2 8 12 52 22 98 11 50 21 78 26 71 4 -7 5 -18 1 -23z
m-515 -715 c11 -43 19 -96 16 -117 -2 -22 -5 -59 -7 -84 -2 -25 -17 -71 -33
-103 l-29 -58 -17 53 c-33 106 -32 131 4 264 18 68 36 124 39 124 3 0 15 -35
27 -79z"/>
<path d="M3356 11781 c-19 -21 -41 -130 -45 -223 -2 -30 -18 -20 -25 15 -4 17
-8 65 -11 106 -4 86 -21 114 -50 85 -16 -16 -17 -32 -12 -159 l6 -140 -35 43
c-24 28 -44 42 -60 42 -36 0 -41 -27 -12 -58 32 -34 46 -61 53 -103 9 -52 25
-101 47 -137 19 -31 19 -35 3 -140 -15 -93 -65 -246 -94 -287 -13 -18 -60
-149 -72 -200 -17 -73 -30 -88 -132 -157 -50 -34 -123 -91 -162 -128 -55 -52
-87 -73 -150 -99 -44 -18 -89 -38 -100 -45 -30 -19 -75 -29 -133 -30 -60 -1
-65 6 -57 75 5 34 15 53 45 84 57 59 72 101 71 214 0 185 -17 249 -75 280 -13
7 -29 24 -36 37 -18 33 -72 49 -171 49 -78 0 -90 -3 -130 -29 -75 -49 -122
-110 -148 -189 -17 -50 -21 -153 -8 -197 6 -19 11 -46 12 -60 4 -42 26 -89 45
-95 23 -7 30 -27 35 -104 3 -56 2 -61 -18 -66 -47 -10 -64 -8 -117 17 -64 29
-130 45 -216 53 -95 9 -105 12 -188 59 -43 25 -124 59 -179 77 -135 42 -146
48 -214 120 -32 34 -80 83 -107 108 -135 126 -287 283 -332 345 -71 95 -126
265 -119 366 4 54 3 60 -15 60 -31 0 -53 -45 -53 -106 0 -50 -2 -54 -24 -54
-12 0 -23 4 -23 8 0 5 -29 38 -64 74 -70 73 -140 116 -153 95 -18 -28 4 -64
62 -103 24 -15 61 -81 52 -91 -4 -3 -33 14 -64 39 -77 60 -122 83 -136 69 -18
-18 9 -53 84 -112 38 -30 65 -55 60 -57 -5 -2 -42 13 -83 32 -79 39 -108 44
-108 21 0 -17 88 -84 143 -109 20 -9 37 -21 37 -26 0 -9 -53 5 -116 31 -40 16
-72 6 -53 -17 18 -22 285 -154 313 -154 31 0 98 -66 236 -229 25 -30 50 -59
55 -65 6 -6 30 -36 55 -66 58 -72 197 -226 235 -262 17 -15 64 -49 105 -75 75
-46 238 -157 295 -199 41 -30 181 -99 234 -115 50 -15 66 -36 76 -99 4 -25 9
-53 11 -62 2 -10 6 -28 9 -39 2 -12 11 -45 19 -73 8 -28 17 -73 21 -101 5 -48
9 -73 20 -140 2 -16 7 -59 10 -95 4 -36 9 -73 11 -82 3 -10 7 -30 10 -44 5
-25 3 -26 -23 -18 -15 4 -44 8 -63 9 -19 1 -34 6 -33 11 2 5 14 41 28 81 28
81 29 96 20 208 -13 146 -91 202 -243 173 -84 -15 -124 -70 -128 -173 -1 -33
-5 -67 -8 -76 -9 -20 10 -95 25 -105 6 -3 22 -29 34 -57 18 -38 21 -55 14 -70
-6 -10 -13 -16 -16 -13 -3 3 -18 -3 -32 -12 -37 -25 -77 -41 -119 -48 -20 -3
-48 -12 -62 -19 -61 -32 -154 -189 -195 -330 -30 -105 -30 -100 -21 -185 4
-36 8 -92 8 -125 1 -91 47 -145 129 -150 52 -4 83 -30 75 -65 -4 -14 -9 -36
-12 -50 -18 -78 -22 -144 -19 -319 3 -140 7 -196 16 -202 14 -8 16 -18 24 -99
3 -30 8 -86 12 -125 3 -38 7 -146 7 -240 l1 -170 40 1 c22 1 66 4 98 9 31 4
58 3 58 -1 9 -62 11 -100 9 -261 -1 -146 7 -181 80 -383 99 -273 95 -255 75
-332 -2 -5 -3 -17 -4 -27 0 -11 -7 -26 -14 -33 -45 -46 -64 -119 -34 -131 7
-3 61 -4 120 -3 127 1 130 4 123 92 -7 70 6 95 49 100 44 5 49 9 73 57 26 52
24 99 -7 223 l-18 71 33 35 c38 42 51 85 60 189 7 83 33 198 70 307 39 113 40
146 11 191 -23 35 -24 40 -11 60 23 32 29 111 11 144 -10 20 -12 39 -7 65 5
20 11 62 15 92 13 120 42 230 61 230 7 0 11 -8 10 -17 -4 -22 -14 -108 -21
-180 -5 -52 -4 -53 23 -54 15 -1 30 -1 33 -1 8 1 3 -434 -6 -483 -4 -22 -10
-58 -14 -80 -8 -44 -7 -67 4 -200 4 -49 9 -144 10 -210 2 -105 -1 -125 -21
-170 -29 -64 -34 -98 -39 -281 -6 -171 -7 -167 72 -188 100 -27 231 -3 243 44
6 22 -19 114 -53 200 -5 12 -26 163 -29 205 -1 17 11 107 21 155 14 68 18 82
32 115 7 17 13 32 14 35 13 41 39 89 47 84 5 -3 7 -8 5 -11 -3 -2 -1 -21 4
-41 6 -20 12 -48 15 -62 3 -14 12 -50 21 -80 9 -30 18 -62 19 -70 2 -8 9 -38
15 -67 12 -50 12 -53 -24 -125 -83 -166 -83 -201 -5 -213 70 -11 76 -14 82
-49 11 -60 78 -99 162 -95 34 2 64 -4 99 -20 46 -21 56 -22 115 -12 80 13 114
43 100 88 -45 142 -44 132 -21 182 32 69 32 81 -5 160 -33 71 -34 79 -34 191
0 115 1 120 36 195 32 65 37 88 40 158 1 45 -3 110 -8 145 -8 45 -8 69 0 85 9
18 22 69 47 187 20 93 30 114 84 171 31 32 62 59 69 59 16 0 28 -31 37 -100 4
-30 9 -64 11 -75 2 -11 6 -38 8 -60 6 -52 16 -76 38 -95 11 -8 21 -31 24 -50
10 -80 16 -99 60 -183 l45 -88 -12 -57 c-21 -101 -16 -175 18 -236 9 -17 18
-62 20 -107 4 -67 0 -96 -27 -189 -67 -236 -30 -364 100 -351 19 1 70 45 70
59 0 9 84 62 99 62 3 0 5 -29 3 -63 -3 -62 -3 -64 25 -75 15 -6 35 -11 43 -11
8 0 48 -3 88 -6 68 -4 75 -3 97 20 22 21 23 27 14 54 -6 17 -22 40 -36 51 -14
11 -23 20 -21 20 3 0 0 17 -7 38 -24 67 -6 146 73 329 52 119 61 163 63 310 1
68 10 166 20 224 11 57 21 115 24 129 4 21 11 79 20 164 1 11 3 24 4 27 0 3
17 4 38 2 20 -2 39 1 43 6 3 6 3 38 0 72 -4 46 -1 76 14 122 11 34 22 63 25
64 4 2 5 24 4 50 -1 27 -4 107 -7 178 -3 72 -9 150 -13 175 -4 25 -8 63 -8 85
0 39 1 40 41 45 23 4 54 14 70 24 34 22 94 82 94 95 0 10 56 32 63 25 2 -2 12
5 22 16 17 18 17 24 4 63 -8 23 -14 44 -14 47 0 3 -3 10 -6 15 -4 6 -12 28
-19 49 -7 22 -42 85 -78 140 -35 56 -72 114 -81 129 -9 16 -37 58 -64 93 -50
67 -97 99 -264 179 -72 35 -82 43 -92 75 -9 29 -8 48 5 89 32 109 13 232 -45
290 -62 61 -169 75 -231 31 -33 -23 -37 -24 -63 -8 -12 8 -42 20 -66 28 -48
15 -69 41 -77 91 -5 27 2 49 31 103 20 37 36 80 36 95 1 103 -6 182 -22 222
-10 26 -16 49 -13 51 2 3 -19 25 -48 50 -120 103 -272 77 -349 -59 -20 -35
-22 -52 -21 -196 1 -177 14 -239 67 -313 18 -25 3 -51 -35 -58 -113 -23 -195
-60 -241 -111 -22 -24 -36 -32 -44 -25 -6 5 -35 14 -63 21 l-52 11 6 41 c4 23
11 50 16 60 5 9 6 17 3 17 -2 0 2 17 9 38 8 20 17 80 20 132 3 52 8 109 11
125 2 17 6 70 9 119 3 85 5 91 32 114 110 91 217 201 294 301 49 64 116 146
150 181 33 36 63 76 67 90 3 14 9 30 13 35 11 13 74 204 94 280 14 57 19 80
31 158 3 17 7 43 10 57 2 14 7 43 10 65 9 70 13 82 49 163 33 76 53 138 62
192 3 14 15 59 28 100 23 73 29 120 14 120 -5 0 -12 0 -17 0 -6 0 -20 -27 -32
-60 -36 -99 -48 -92 -28 18 24 130 24 172 1 172 -24 0 -39 -28 -48 -86 -4 -27
-13 -66 -20 -87 -7 -20 -13 -40 -13 -43 0 -3 -2 -9 -6 -12 -8 -7 1 118 14 197
6 40 5 50 -10 59 -13 8 -21 7 -33 -7z m-782 -4518 c9 -29 16 -88 17 -148 1
-55 6 -111 11 -125 5 -14 10 -56 10 -95 0 -87 10 -131 50 -218 27 -62 30 -76
25 -139 -3 -38 -8 -72 -10 -74 -2 -3 4 -35 14 -72 24 -86 25 -204 3 -237 -12
-19 -25 -25 -53 -25 -35 0 -36 1 -38 40 -1 21 -11 63 -20 92 -19 54 -20 104
-10 368 3 87 -7 168 -30 245 -5 16 -6 46 -3 66 7 37 5 112 -6 277 -5 78 -4 92
9 92 9 0 21 -19 31 -47z m1148 -662 c-3 -29 -8 -38 -18 -34 -17 6 -18 20 -3
62 14 41 26 25 21 -28z"/>
<path d="M8343 11276 c-41 -10 -82 -37 -125 -81 -32 -33 -99 -177 -99 -215 0
-105 17 -229 36 -250 27 -31 65 -121 65 -152 0 -42 -4 -47 -65 -86 -62 -41
-143 -66 -264 -82 -90 -13 -96 -15 -135 -55 -53 -54 -57 -59 -87 -125 -22 -45
-150 -421 -165 -479 -2 -9 -13 -47 -24 -86 -41 -142 -22 -212 70 -257 60 -29
181 -68 275 -89 l60 -14 0 -40 c0 -39 -9 -80 -27 -121 -5 -11 -38 -37 -74 -58
-45 -26 -64 -42 -64 -56 0 -18 -7 -15 -51 20 -30 24 -74 46 -107 56 -32 8 -79
23 -107 32 -27 9 -63 16 -80 17 -35 1 -36 14 -10 85 30 79 30 83 21 205 -8 98
-17 120 -71 160 -27 21 -47 28 -92 29 -139 6 -211 -61 -208 -194 0 -30 -3 -58
-8 -61 -9 -6 10 -90 22 -99 15 -11 50 -81 54 -109 7 -45 -6 -46 -50 -3 -43 42
-123 102 -135 102 -5 0 -14 5 -21 10 -7 6 -54 38 -104 70 -58 37 -93 66 -94
77 0 10 -3 30 -5 45 -5 32 20 88 40 88 29 0 48 37 44 87 -2 26 -8 54 -12 62
-5 8 -10 53 -10 100 -1 75 -5 93 -28 131 -45 75 -73 103 -104 107 -16 1 -42 4
-58 6 -32 5 -89 -15 -155 -53 -33 -19 -48 -36 -58 -65 -13 -35 -19 -134 -15
-217 1 -16 2 -40 2 -55 0 -14 11 -51 25 -81 17 -38 25 -72 25 -112 l0 -57 -50
-21 c-56 -23 -63 -16 -35 39 29 55 17 140 -32 231 -31 57 -86 88 -154 88 -59
0 -127 -48 -144 -100 -7 -22 -10 -19 -28 31 -46 123 -119 190 -324 295 -70 36
-137 74 -147 84 -19 19 -19 20 12 81 18 34 32 69 32 77 0 9 6 23 14 31 8 9 24
54 36 101 12 47 28 98 34 113 7 15 12 54 10 87 -3 68 -43 140 -112 202 -88 79
-215 76 -331 -7 -76 -55 -99 -124 -105 -330 -2 -62 1 -84 13 -98 9 -12 16 -39
17 -71 0 -28 4 -68 8 -88 6 -32 3 -39 -16 -52 -13 -8 -36 -17 -53 -19 -16 -3
-55 -14 -85 -26 -30 -11 -82 -24 -115 -27 -33 -3 -76 -10 -97 -15 -77 -20
-242 -154 -254 -207 -11 -43 -51 -115 -78 -140 -35 -32 -111 -148 -142 -215
-20 -44 -25 -72 -25 -134 0 -43 2 -96 5 -118 12 -81 15 -101 20 -125 15 -72
31 -128 53 -188 14 -37 37 -103 53 -146 29 -82 41 -98 98 -122 29 -13 36 -12
74 6 23 11 42 20 43 20 1 0 2 -22 4 -48 1 -26 -7 -77 -18 -112 -26 -82 -26
-130 -1 -162 18 -24 25 -47 35 -117 3 -18 7 -36 10 -40 2 -4 7 -21 9 -37 10
-52 15 -75 21 -94 3 -10 8 -28 10 -39 2 -12 18 -71 35 -131 24 -85 30 -120 24
-155 -6 -41 -5 -45 15 -45 15 0 21 -7 22 -22 3 -65 11 -126 24 -178 1 -3 7
-31 14 -62 7 -32 16 -58 21 -58 9 0 7 -25 -7 -86 -26 -109 -12 -269 44 -474 8
-30 21 -82 28 -115 l14 -60 -42 -63 c-23 -35 -41 -67 -40 -72 1 -4 5 -21 7
-37 3 -15 15 -55 27 -88 22 -62 21 -92 -6 -148 -60 -128 -64 -231 -14 -329 20
-39 47 -52 138 -63 84 -11 155 64 155 163 -1 32 -3 63 -5 71 -2 8 9 18 28 25
47 16 56 30 57 83 1 34 -5 57 -21 79 -15 21 -24 51 -27 95 -3 35 -14 92 -25
127 -11 35 -17 75 -15 89 12 67 34 147 41 152 5 3 17 22 27 43 11 20 27 46 37
59 16 21 16 19 5 -42 -12 -62 -13 -143 -2 -224 6 -43 15 -152 20 -227 2 -27
-7 -84 -21 -135 -13 -48 -26 -97 -29 -108 -3 -11 -7 -61 -10 -112 l-6 -91 28
-19 c40 -26 137 -27 186 -2 36 19 39 22 37 62 -1 23 -11 65 -21 94 -11 29 -25
80 -32 114 -12 62 -12 63 41 248 30 102 56 204 60 226 8 53 6 198 -4 255 -18
111 -5 319 27 435 11 39 22 95 25 125 3 30 9 57 14 60 12 8 50 178 57 256 3
44 0 93 -9 136 -16 76 -15 153 4 218 13 45 15 61 18 102 1 21 3 20 31 -9 33
-34 85 -49 106 -32 26 22 38 85 23 121 -7 18 -14 61 -14 97 l-1 65 42 -50 c24
-27 47 -53 51 -58 5 -6 1 -26 -9 -45 -30 -63 -43 -296 -23 -407 11 -63 45
-189 111 -414 36 -121 35 -118 48 -190 13 -67 13 -116 1 -210 -18 -139 -20
-170 -12 -250 8 -79 32 -162 86 -300 12 -30 24 -66 27 -80 8 -41 5 -130 -7
-207 -11 -67 -10 -74 10 -108 11 -20 21 -44 21 -54 0 -32 34 -52 96 -56 66 -5
82 2 154 71 l45 43 3 157 c3 142 5 158 24 177 20 22 46 73 55 111 18 78 22
116 17 157 -4 30 -1 66 11 104 9 32 19 86 22 120 5 56 3 65 -18 86 -22 22 -24
32 -24 124 1 104 11 200 25 224 15 28 38 -31 44 -114 3 -44 8 -118 12 -165 10
-139 11 -224 3 -240 -27 -56 -39 -260 -26 -445 5 -77 2 -102 -18 -175 -31
-108 -34 -124 -41 -240 -5 -86 -4 -97 15 -122 39 -49 205 -59 259 -16 19 16
15 50 -12 101 -14 25 -27 62 -31 84 -3 21 -9 52 -12 68 -6 30 -6 122 1 160 2
11 25 90 50 175 62 210 58 187 61 440 1 124 5 239 9 256 7 29 69 180 78 189 2
3 4 -69 4 -158 l-1 -162 60 3 c138 8 138 8 141 -13 5 -28 7 -155 5 -255 -1
-47 0 -103 4 -125 8 -49 87 -285 126 -377 15 -38 26 -68 22 -68 -3 0 0 -6 6
-14 6 -7 12 -24 12 -37 3 -40 -28 -140 -51 -164 -12 -13 -24 -41 -27 -63 -4
-33 -2 -41 13 -46 34 -10 222 -2 235 11 7 7 11 31 9 55 -6 104 3 131 44 124
12 -2 29 1 38 8 25 18 58 88 58 123 0 34 -35 198 -48 223 -4 8 -9 47 -11 86
-2 69 -1 73 48 160 28 48 51 93 52 99 0 5 3 19 5 30 2 11 7 58 9 105 10 169
17 230 26 236 5 3 9 33 9 68 0 34 5 67 11 73 11 11 13 27 24 188 3 50 8 101
10 115 18 126 27 150 58 150 16 0 18 -6 13 -37 -7 -44 -16 -122 -21 -175 -3
-33 -1 -38 18 -39 49 -1 70 -11 101 -44 33 -34 47 -39 112 -35 33 1 33 2 84
-206 4 -17 6 -111 5 -210 -2 -123 2 -201 11 -245 8 -35 17 -80 20 -99 3 -19
10 -48 15 -65 18 -57 58 -210 60 -230 3 -20 -1 -30 -60 -156 -47 -102 -46
-109 7 -181 41 -54 59 -69 132 -105 53 -27 104 -45 137 -48 47 -5 54 -3 68 19
17 26 16 69 -4 157 -17 73 -16 161 2 194 l15 30 -1 -40 c-3 -78 10 -122 40
-133 81 -32 121 -21 162 44 36 58 34 93 -13 184 -18 36 -38 87 -45 114 -7 26
-25 65 -42 85 -27 35 -29 42 -25 102 3 35 5 64 6 64 1 0 3 9 5 20 11 67 16
111 20 205 2 58 6 114 8 125 14 60 26 215 27 326 0 21 7 28 40 39 55 18 78 45
62 71 -14 21 -51 112 -59 144 -8 28 -7 103 1 150 4 22 9 53 11 70 3 16 11 64
20 105 8 41 17 86 19 100 21 114 32 162 63 280 34 125 36 146 37 285 1 133 -3
200 -18 285 -10 59 -29 177 -32 195 -1 11 -3 20 -4 20 -1 0 -3 7 -5 15 -1 8
-10 42 -18 75 -16 64 -22 99 -33 180 -3 28 -8 53 -11 58 -2 4 -1 7 4 7 7 0
103 -132 112 -155 2 -5 14 -26 26 -45 12 -19 25 -46 28 -60 3 -14 12 -34 20
-44 14 -19 15 -19 51 3 20 13 45 39 55 60 11 20 29 42 40 49 31 19 28 73 -6
109 -16 16 -33 38 -39 48 -6 12 -29 24 -53 29 -30 6 -50 19 -67 42 -35 45
-121 218 -118 235 2 8 13 48 25 88 18 63 21 92 16 185 l-4 110 44 91 c47 98
59 145 49 197 -15 79 -67 103 -262 122 -85 8 -101 15 -107 44 -5 26 1 37 78
157 29 45 52 109 84 228 9 36 8 80 -4 137 -2 14 -7 39 -10 55 -4 17 -11 42
-17 58 -13 34 -84 109 -118 124 -45 21 -132 30 -177 19z m-495 -1413 c6 -16
14 -50 17 -78 3 -27 9 -68 12 -90 10 -55 10 -164 0 -198 l-8 -28 -47 33 c-96
65 -132 101 -126 122 13 42 126 266 134 266 4 0 12 -12 18 -27z m-3186 -581
c-2 -93 -8 -182 -16 -213 -8 -29 -13 -80 -12 -114 l3 -63 -28 8 c-16 5 -33 11
-39 15 -6 4 -26 9 -43 12 -18 3 -39 7 -47 8 -8 2 -18 4 -21 4 -16 2 -27 90
-22 179 2 53 5 130 7 170 2 81 4 83 100 134 33 17 63 26 86 24 l35 -3 -3 -161z
m1051 -150 c-41 -41 -53 -89 -50 -197 1 -58 1 -105 0 -105 -1 0 -7 19 -14 43
-23 84 -12 156 48 317 4 11 9 7 18 -14 10 -25 10 -32 -2 -44z m-1116 -300 c8
-5 3 -17 -16 -40 l-27 -34 -14 26 c-12 24 -12 28 6 41 21 16 34 18 51 7z
m1091 -217 c-1 -47 -6 -85 -10 -85 -4 0 -8 10 -9 23 0 12 -2 45 -3 72 -3 43 6
75 21 75 2 0 3 -38 1 -85z m-68 -370 c0 -7 -7 -18 -15 -25 -13 -11 -15 -8 -15
18 0 24 4 30 15 26 8 -4 15 -12 15 -19z m2132 3 c24 1 26 -4 33 -89 17 -201
18 -233 11 -308 -5 -48 -16 -68 -16 -29 0 14 -6 63 -14 109 -8 46 -18 104 -21
128 -4 25 -13 63 -20 85 -7 23 -18 58 -24 79 -9 36 -9 38 12 31 12 -4 30 -7
39 -6z m538 -1148 c0 -5 -5 -10 -11 -10 -5 0 -7 5 -4 10 3 6 8 10 11 10 2 0 4
-4 4 -10z m0 -100 c0 -5 -2 -10 -4 -10 -3 0 -8 5 -11 10 -3 6 -1 10 4 10 6 0
11 -4 11 -10z m-1 -92 c0 -58 -2 -68 -10 -49 -11 29 -9 121 3 121 4 0 8 -33 7
-72z"/>
<path d="M20110 9940 c-63 -19 -130 -76 -130 -112 0 -9 -3 -19 -8 -22 -4 -2
-7 -22 -7 -43 0 -21 -6 -44 -12 -51 -12 -12 -15 -28 -15 -67 0 -43 4 -57 22
-72 31 -27 28 -126 -5 -176 -27 -38 -63 -62 -104 -68 -24 -4 -25 -2 -26 61 -2
136 -108 269 -200 250 -5 -1 -19 -3 -30 -4 -32 -3 -80 -37 -102 -70 -16 -24
-51 -168 -58 -241 0 -5 13 -39 31 -74 19 -38 30 -76 29 -95 -2 -17 -3 -43 -4
-57 -1 -34 -115 -113 -185 -129 -73 -16 -81 -23 -112 -97 -28 -68 -47 -99
-103 -163 -17 -19 -36 -47 -42 -62 -10 -25 -9 -30 15 -49 14 -11 24 -24 22
-28 -3 -4 -8 -23 -11 -42 -3 -19 -19 -84 -35 -145 -46 -171 -29 -195 135 -190
94 4 94 4 60 -64 -17 -35 -27 -83 -30 -154 -2 -34 -4 -65 -6 -71 -1 -5 1 -26
4 -45 4 -19 9 -114 12 -210 5 -180 8 -213 26 -290 23 -98 30 -120 44 -120 17
0 49 -95 76 -230 34 -173 35 -197 9 -232 -23 -32 -23 -33 -16 -213 3 -57 -5
-153 -20 -240 -4 -22 -7 -81 -7 -131 0 -76 4 -98 21 -125 26 -43 74 -79 105
-79 49 0 112 77 103 126 -14 77 -18 122 -21 270 -3 157 -1 171 18 203 l21 35
15 -45 c16 -49 27 -63 59 -73 12 -4 23 -13 23 -19 1 -7 3 -21 5 -32 27 -184
25 -338 -4 -430 -20 -61 -26 -98 -37 -225 -5 -68 62 -105 158 -88 74 14 99 34
94 74 l-5 32 53 -3 c69 -5 90 1 105 30 11 21 7 34 -34 117 -43 88 -45 96 -40
154 5 46 2 67 -9 85 -9 13 -19 41 -22 62 -7 37 -5 46 41 152 34 80 63 189 67
261 3 43 6 83 6 87 1 5 5 5 11 2 36 -22 150 -29 192 -12 59 25 72 56 114 282
3 17 7 37 9 45 6 31 19 146 18 163 -2 50 32 -47 42 -118 6 -41 6 -135 1 -162
-8 -36 -19 -145 -20 -198 -3 -87 24 -242 47 -272 5 -7 6 -13 2 -13 -4 0 -3 -6
2 -12 6 -7 23 -47 39 -88 22 -59 28 -92 28 -155 1 -75 -11 -185 -20 -194 -2
-2 7 -24 21 -47 14 -24 25 -46 25 -49 -1 -27 4 -36 28 -48 15 -8 50 -15 77
-16 52 -2 63 3 139 69 48 42 53 67 51 281 -1 108 -5 200 -8 206 -4 6 2 31 13
55 10 24 22 64 26 88 3 25 18 83 31 130 23 77 25 103 25 268 0 100 5 201 10
225 5 23 11 51 14 62 2 11 10 52 18 90 20 91 25 118 31 185 5 45 12 60 38 83
l31 28 -2 112 c-4 234 -9 333 -20 360 -7 15 -11 52 -11 81 1 29 -1 62 -5 73
-8 24 -5 25 89 43 64 12 187 55 221 77 11 7 26 24 33 37 11 19 10 29 -4 57
-10 19 -21 36 -24 39 -3 3 -11 14 -18 25 -7 11 -30 50 -52 86 -59 97 -60 109
-12 144 22 17 41 35 41 41 1 40 -170 229 -264 293 -70 47 -155 84 -202 86 -24
2 -58 8 -75 15 -29 12 -31 16 -25 50 3 20 13 51 22 69 36 72 -20 241 -95 285
-21 12 -54 20 -90 21 -48 1 -61 -3 -92 -28 -59 -46 -90 -115 -92 -200 -1 -67
4 -113 20 -175 l6 -25 -34 25 c-19 14 -54 33 -79 42 -25 9 -56 26 -70 36 -28
21 -29 17 37 100 42 51 70 121 77 192 2 18 7 56 12 83 16 99 -6 183 -58 217
-49 32 -159 52 -208 38z m1009 -1299 c74 -93 75 -97 62 -141 -8 -29 -19 -41
-42 -49 -27 -9 -31 -8 -41 14 -6 14 -26 34 -44 44 -37 22 -40 35 -36 143 3 75
4 77 25 67 12 -6 46 -41 76 -78z"/>
</g>
</svg>
